<?xml version="1.0" encoding="UTF-8"?>
<svg width="140px" height="120px" viewBox="0 0 140 120" version="1.1" xmlns="http://www.w3.org/2000/svg" xmlns:xlink="http://www.w3.org/1999/xlink">
    <title>Artboard</title>
    <g id="Artboard" stroke="none" stroke-width="1" fill="none" fill-rule="evenodd">
        <g id="Group" transform="translate(3.000000, 4.000000)" fill="#FFFFFF" stroke="#000000" stroke-width="2">
            <path d="M67.5,104 C87.5893001,104 105.043184,92.7164413 113.869741,76.1412338 L135,113 L0,113 L20.8897153,75.6841005 C29.6370597,92.5086344 47.2265537,104 67.5,104 Z" id="Combined-Shape"></path>
            <path d="M67,1 C81.3594035,1 94.3594035,6.82029825 103.769553,16.2304474 C113.179702,25.6405965 119,38.6405965 119,53 C119,67.3594035 113.179702,80.3594035 103.769553,89.7695526 C94.3594035,99.1797017 81.3594035,105 67,105 C52.6405965,105 39.6405965,99.1797017 30.2304474,89.7695526 C20.8202983,80.3594035 15,67.3594035 15,53 C15,38.6405965 20.8202983,25.6405965 30.2304474,16.2304474 C39.6405965,6.82029825 52.6405965,1 67,1 Z M67,5 C53.745166,5 41.745166,10.372583 33.0588745,19.0588745 C24.372583,27.745166 19,39.745166 19,53 C19,66.254834 24.372583,78.254834 33.0588745,86.9411255 C41.745166,95.627417 53.745166,101 67,101 C80.254834,101 92.254834,95.627417 100.941125,86.9411255 C109.627417,78.254834 115,66.254834 115,53 C115,39.745166 109.627417,27.745166 100.941125,19.0588745 C92.254834,10.372583 80.254834,5 67,5 Z" id="Combined-Shape"></path>
        </g>
    </g>
</svg>